<?xml version="1.0" encoding="UTF-8"?>
<svg id="b" data-name="Layer 2" xmlns="http://www.w3.org/2000/svg" viewBox="0 0 180.32 45.6">
  <g id="c" data-name="Logo">
    <path d="m0,0h5.16C14.81,0,22.67,7.86,22.67,17.5s-7.86,17.5-17.5,17.5H0V0ZM49.8,0h-5.16C34.99,0,27.13,7.86,27.13,17.5s7.86,17.5,17.5,17.5h5.16V0Zm40.75,17.5c0,9.65-7.85,17.5-17.5,17.5h-12.64V0h12.64c9.65,0,17.5,7.85,17.5,17.5Zm-5.31,0c0-6.72-5.48-12.2-12.2-12.2h-7.34v24.39h7.34c6.72,0,12.2-5.48,12.2-12.2Zm32.26,5.41c0,6.69-5.44,12.13-12.13,12.13s-12.13-5.44-12.13-12.13,5.44-12.13,12.13-12.13,12.13,5.44,12.13,12.13Zm-4.82-.04c0-4.01-3.3-7.31-7.31-7.31s-7.31,3.26-7.31,7.31,3.26,7.31,7.31,7.31,7.31-3.26,7.31-7.31Zm8.25,12.14h5.31V0h-5.31v35Zm34.15-12.09c0,6.69-5.44,12.13-12.13,12.13-2.58,0-4.97-.81-6.94-2.19v2.15h-5.32V0S136.02,0,136.02,0v12.96c1.97-1.38,4.36-2.19,6.94-2.19,6.69,0,12.13,5.44,12.13,12.13Zm-4.82-.04c0-4.01-3.3-7.31-7.31-7.31-3.21,0-5.97,2.09-6.94,5-.24.73-.38,1.5-.38,2.31s.14,1.58.38,2.3c.96,2.9,3.69,5.01,6.94,5.01,4.01,0,7.31-3.26,7.31-7.31Zm24.26-12.07l-6.91,15.54-6.91-15.54h-5.8l9.81,22.06s-2.4,5.4-2.41,5.42c-.64,1.43-2.31,2.07-3.74,1.44l-.76-.34-2.14,4.81h0s0,0,0,0h0s1.84.82,1.84.82c3.45,1.54,7.52-.03,9.06-3.48.01-.03,12.57-28.08,13.74-30.72h-5.8Z"/>
  </g>
</svg>