<?xml version="1.0" encoding="UTF-8"?>
<svg id="b" data-name="Layer 2" xmlns="http://www.w3.org/2000/svg" viewBox="0 0 587.44 226.96">
  <g id="c" data-name="Logo">
    <g>
      <path d="m368.71,179.34h5.16c9.64,0,17.5,7.86,17.5,17.5s-7.86,17.5-17.5,17.5h-5.16v-35.01Zm49.8,0h-5.16c-9.64,0-17.5,7.86-17.5,17.5s7.86,17.5,17.5,17.5h5.16v-35.01Zm40.75,17.5c0,9.65-7.85,17.5-17.5,17.5h-12.64v-35.01h12.64c9.65,0,17.5,7.85,17.5,17.5Zm-5.31,0c0-6.72-5.48-12.2-12.2-12.2h-7.34v24.39h7.34c6.72,0,12.2-5.48,12.2-12.2Zm32.26,5.41c0,6.69-5.44,12.13-12.13,12.13s-12.13-5.44-12.13-12.13,5.44-12.13,12.13-12.13,12.13,5.44,12.13,12.13Zm-4.82-.04c0-4.01-3.3-7.31-7.31-7.31s-7.31,3.26-7.31,7.31,3.26,7.31,7.31,7.31,7.31-3.26,7.31-7.31Zm8.25,12.14h5.31v-35h-5.31v35Zm34.15-12.09c0,6.69-5.44,12.13-12.13,12.13-2.58,0-4.97-.81-6.94-2.19v2.15h-5.32v-35s5.32,0,5.32,0v12.96c1.97-1.38,4.36-2.19,6.94-2.19,6.69,0,12.13,5.44,12.13,12.13Zm-4.82-.04c0-4.01-3.3-7.31-7.31-7.31-3.21,0-5.97,2.09-6.94,5-.24.73-.38,1.5-.38,2.31s.14,1.58.38,2.3c.96,2.9,3.69,5.01,6.94,5.01,4.01,0,7.31-3.26,7.31-7.31Zm24.26-12.07l-6.91,15.54-6.91-15.54h-5.8l9.81,22.06s-2.4,5.4-2.41,5.42c-.64,1.43-2.31,2.07-3.74,1.44l-.76-.34-2.14,4.81h0s0,0,0,0h0s1.84.82,1.84.82c3.45,1.54,7.52-.03,9.06-3.48.01-.03,12.57-28.08,13.74-30.72h-5.8Z"/>
      <g>
        <path d="m47.32,186.46c-.97-1.26-2.19-2.23-3.68-2.9-1.48-.68-3.02-1.02-4.6-1.02-1.94,0-3.69.36-5.25,1.09-1.56.73-2.9,1.72-4.02,2.98-1.11,1.26-1.98,2.73-2.59,4.43-.61,1.69-.92,3.51-.92,5.44,0,1.81.29,3.52.87,5.13.58,1.61,1.42,3.03,2.52,4.26,1.1,1.23,2.44,2.19,4.02,2.9,1.58.71,3.37,1.06,5.37,1.06s3.69-.4,5.18-1.21c1.48-.81,2.74-1.94,3.77-3.39l3.92,2.95c-.26.36-.71.86-1.35,1.52-.65.66-1.5,1.32-2.56,1.98s-2.35,1.24-3.85,1.74c-1.5.5-3.23.75-5.2.75-2.71,0-5.15-.52-7.33-1.55-2.18-1.03-4.03-2.39-5.56-4.06-1.53-1.68-2.7-3.57-3.51-5.69-.81-2.11-1.21-4.25-1.21-6.41,0-2.64.44-5.09,1.31-7.33s2.09-4.18,3.65-5.81c1.56-1.63,3.44-2.9,5.64-3.8,2.19-.9,4.61-1.36,7.26-1.36,2.26,0,4.48.44,6.65,1.31s3.96,2.21,5.35,4.02l-3.87,2.95Z"/>
        <path d="m55.3,201.85c0-1.68.31-3.24.94-4.69.63-1.45,1.49-2.73,2.59-3.82,1.1-1.1,2.39-1.96,3.87-2.59,1.48-.63,3.08-.94,4.79-.94s3.31.31,4.79.94c1.48.63,2.77,1.49,3.87,2.59s1.96,2.37,2.59,3.82c.63,1.45.94,3.02.94,4.69s-.31,3.25-.94,4.72c-.63,1.47-1.49,2.74-2.59,3.82-1.1,1.08-2.39,1.94-3.87,2.56-1.48.63-3.08.94-4.79.94s-3.31-.31-4.79-.94c-1.48-.63-2.77-1.48-3.87-2.56-1.1-1.08-1.96-2.35-2.59-3.82-.63-1.47-.94-3.04-.94-4.72Zm4.65,0c0,1.16.18,2.23.53,3.22.35.98.85,1.82,1.5,2.52.65.69,1.44,1.24,2.37,1.65.94.4,1.98.6,3.15.6s2.21-.2,3.15-.6c.94-.4,1.73-.95,2.37-1.65.65-.69,1.14-1.53,1.5-2.52.35-.98.53-2.06.53-3.22s-.18-2.23-.53-3.22c-.36-.98-.85-1.82-1.5-2.52-.65-.69-1.44-1.24-2.37-1.64-.94-.4-1.98-.61-3.15-.61s-2.21.2-3.15.61c-.94.4-1.73.95-2.37,1.64-.65.69-1.15,1.53-1.5,2.52-.36.98-.53,2.06-.53,3.22Z"/>
        <path d="m85.16,190.38h4.35v3.53h.1c.55-1.23,1.5-2.22,2.85-2.98,1.35-.76,2.92-1.14,4.69-1.14,1.1,0,2.15.17,3.17.51s1.9.86,2.66,1.57c.76.71,1.36,1.62,1.81,2.73.45,1.11.68,2.43.68,3.94v14.76h-4.36v-13.55c0-1.06-.15-1.98-.44-2.73-.29-.76-.68-1.37-1.16-1.84s-1.04-.81-1.67-1.02c-.63-.21-1.28-.31-1.96-.31-.9,0-1.74.15-2.52.44-.77.29-1.45.75-2.03,1.38-.58.63-1.03,1.43-1.35,2.4-.32.97-.48,2.11-.48,3.44v11.81h-4.35v-22.94Z"/>
        <path d="m124.36,194.15h-6.24v10.4c0,.65.02,1.28.05,1.91.03.63.15,1.19.36,1.69.21.5.53.9.97,1.21.44.31,1.07.46,1.91.46.52,0,1.05-.05,1.6-.14.55-.1,1.05-.27,1.5-.53v3.97c-.52.29-1.19.49-2.01.6s-1.46.17-1.91.17c-1.68,0-2.98-.23-3.9-.7-.92-.47-1.6-1.07-2.03-1.81s-.69-1.57-.77-2.49-.12-1.85-.12-2.78v-11.95h-5.03v-3.77h5.03v-6.44h4.35v6.44h6.24v3.77Z"/>
        <path d="m133.26,203.44c0,1,.22,1.91.65,2.73s1.01,1.52,1.72,2.11c.71.58,1.53,1.03,2.47,1.35.94.32,1.9.48,2.9.48,1.35,0,2.53-.32,3.53-.94,1-.63,1.92-1.46,2.76-2.49l3.29,2.52c-2.42,3.13-5.81,4.69-10.16,4.69-1.81,0-3.44-.31-4.91-.92-1.47-.61-2.71-1.46-3.73-2.54-1.02-1.08-1.8-2.35-2.35-3.82-.55-1.47-.82-3.06-.82-4.77s.3-3.3.9-4.77c.6-1.47,1.42-2.74,2.47-3.82,1.05-1.08,2.3-1.93,3.75-2.54,1.45-.61,3.03-.92,4.74-.92,2.03,0,3.75.36,5.15,1.06,1.4.71,2.56,1.64,3.46,2.78.9,1.15,1.56,2.44,1.96,3.87.4,1.44.6,2.9.6,4.38v1.55h-18.39Zm13.74-3.48c-.03-.97-.19-1.86-.46-2.66-.27-.81-.69-1.51-1.23-2.1-.55-.6-1.23-1.06-2.06-1.4s-1.78-.51-2.88-.51-2.04.2-2.93.6c-.89.4-1.64.93-2.25,1.57-.61.65-1.09,1.36-1.43,2.15-.34.79-.51,1.57-.51,2.35h13.74Z"/>
        <path d="m156.88,190.38h4.35v3.53h.1c.55-1.23,1.5-2.22,2.85-2.98,1.35-.76,2.92-1.14,4.69-1.14,1.1,0,2.15.17,3.17.51s1.9.86,2.66,1.57c.76.71,1.36,1.62,1.81,2.73.45,1.11.68,2.43.68,3.94v14.76h-4.36v-13.55c0-1.06-.15-1.98-.44-2.73-.29-.76-.68-1.37-1.16-1.84s-1.04-.81-1.67-1.02c-.63-.21-1.28-.31-1.96-.31-.9,0-1.74.15-2.52.44-.77.29-1.45.75-2.03,1.38-.58.63-1.03,1.43-1.35,2.4-.32.97-.48,2.11-.48,3.44v11.81h-4.35v-22.94Z"/>
        <path d="m196.07,194.15h-6.24v10.4c0,.65.02,1.28.05,1.91.03.63.15,1.19.36,1.69.21.5.53.9.97,1.21.44.31,1.07.46,1.91.46.52,0,1.05-.05,1.6-.14.55-.1,1.05-.27,1.5-.53v3.97c-.52.29-1.19.49-2.01.6s-1.46.17-1.91.17c-1.68,0-2.98-.23-3.9-.7-.92-.47-1.6-1.07-2.03-1.81s-.69-1.57-.77-2.49-.12-1.85-.12-2.78v-11.95h-5.03v-3.77h5.03v-6.44h4.35v6.44h6.24v3.77Z"/>
        <path d="m218.52,214.19c-2.61,0-5.02-.46-7.21-1.38-2.19-.92-4.07-2.19-5.64-3.8-1.56-1.61-2.79-3.52-3.68-5.71-.89-2.19-1.33-4.56-1.33-7.11s.44-4.92,1.33-7.11c.89-2.19,2.11-4.1,3.68-5.71,1.56-1.61,3.44-2.88,5.64-3.8,2.19-.92,4.6-1.38,7.21-1.38s5.02.46,7.21,1.38c2.19.92,4.07,2.19,5.64,3.8,1.56,1.61,2.79,3.52,3.68,5.71.89,2.19,1.33,4.57,1.33,7.11s-.44,4.92-1.33,7.11c-.89,2.19-2.11,4.1-3.68,5.71-1.56,1.61-3.44,2.88-5.64,3.8-2.19.92-4.6,1.38-7.21,1.38Zm0-4.36c1.97,0,3.74-.36,5.32-1.09,1.58-.73,2.94-1.7,4.06-2.93,1.13-1.23,2-2.67,2.61-4.33.61-1.66.92-3.43.92-5.3s-.31-3.64-.92-5.3c-.61-1.66-1.48-3.1-2.61-4.33-1.13-1.23-2.48-2.2-4.06-2.93-1.58-.73-3.36-1.09-5.32-1.09s-3.74.36-5.32,1.09c-1.58.73-2.94,1.7-4.06,2.93-1.13,1.23-2,2.67-2.61,4.33s-.92,3.43-.92,5.3.31,3.64.92,5.3,1.48,3.1,2.61,4.33c1.13,1.23,2.48,2.2,4.06,2.93,1.58.73,3.35,1.09,5.32,1.09Z"/>
        <path d="m241.95,190.38h4.35v3.29h.1c.84-1.23,1.99-2.18,3.46-2.86,1.47-.68,2.98-1.02,4.52-1.02,1.77,0,3.38.31,4.81.92,1.44.61,2.66,1.47,3.68,2.57,1.02,1.1,1.8,2.38,2.35,3.85.55,1.47.82,3.04.82,4.72s-.27,3.3-.82,4.77c-.55,1.47-1.33,2.74-2.35,3.82-1.02,1.08-2.24,1.93-3.68,2.54-1.44.61-3.04.92-4.81.92-1.65,0-3.19-.35-4.65-1.04s-2.56-1.64-3.34-2.83h-.1v16.94h-4.35v-36.58Zm11.9,3.48c-1.16,0-2.21.2-3.15.61-.94.4-1.73.95-2.37,1.64-.65.69-1.15,1.53-1.5,2.52-.36.98-.53,2.06-.53,3.22s.18,2.23.53,3.22c.35.98.85,1.82,1.5,2.52.65.69,1.44,1.24,2.37,1.65.94.4,1.98.6,3.15.6s2.21-.2,3.15-.6c.94-.4,1.73-.95,2.37-1.65.65-.69,1.15-1.53,1.5-2.52.35-.98.53-2.06.53-3.22s-.18-2.23-.53-3.22c-.36-.98-.86-1.82-1.5-2.52-.65-.69-1.44-1.24-2.37-1.64-.94-.4-1.98-.61-3.15-.61Z"/>
        <path d="m283.71,196.14c-.52-.64-1.15-1.19-1.91-1.62-.76-.44-1.69-.65-2.78-.65-1.03,0-1.93.22-2.69.65-.76.44-1.14,1.07-1.14,1.91,0,.68.22,1.23.65,1.65.44.42.95.76,1.55,1.02.6.26,1.23.45,1.91.58.68.13,1.26.24,1.74.34.94.23,1.81.5,2.64.82s1.53.74,2.13,1.26c.6.52,1.07,1.15,1.4,1.89.34.74.51,1.65.51,2.71,0,1.29-.27,2.4-.82,3.32-.55.92-1.26,1.67-2.13,2.25-.87.58-1.86,1-2.98,1.26-1.11.26-2.23.39-3.36.39-1.9,0-3.57-.29-5.01-.87-1.44-.58-2.72-1.65-3.85-3.19l3.29-2.71c.71.71,1.5,1.34,2.37,1.89.87.55,1.94.82,3.19.82.55,0,1.1-.06,1.67-.17.56-.11,1.06-.29,1.5-.53s.79-.55,1.06-.92c.27-.37.41-.8.41-1.28,0-.64-.2-1.18-.6-1.6-.4-.42-.89-.75-1.45-.99-.56-.24-1.16-.44-1.79-.58-.63-.14-1.19-.27-1.67-.36-.94-.23-1.82-.48-2.66-.77s-1.58-.68-2.23-1.16c-.65-.48-1.16-1.1-1.55-1.84s-.58-1.66-.58-2.76c0-1.19.25-2.23.75-3.12.5-.89,1.16-1.62,1.98-2.2.82-.58,1.76-1.02,2.81-1.31,1.05-.29,2.1-.44,3.17-.44,1.55,0,3.03.29,4.45.87,1.42.58,2.55,1.55,3.39,2.9l-3.39,2.56Z"/>
        <path d="m306.55,193.19c1.23-1.13,2.64-1.98,4.26-2.54,1.61-.56,3.23-.85,4.84-.85s3.12.21,4.33.63c1.21.42,2.2.98,2.98,1.69.77.71,1.35,1.52,1.72,2.44.37.92.56,1.88.56,2.88v11.71c0,.81.02,1.55.05,2.23.03.68.08,1.32.14,1.94h-3.87c-.1-1.16-.14-2.32-.14-3.48h-.1c-.97,1.48-2.11,2.53-3.44,3.15s-2.86.92-4.6.92c-1.06,0-2.08-.15-3.05-.44-.97-.29-1.81-.73-2.54-1.31-.73-.58-1.3-1.3-1.72-2.15s-.63-1.85-.63-2.98c0-1.48.33-2.73.99-3.73.66-1,1.56-1.81,2.71-2.44,1.14-.63,2.48-1.08,4.02-1.35,1.53-.27,3.17-.41,4.91-.41h3.19v-.97c0-.58-.11-1.16-.34-1.74-.22-.58-.56-1.1-1.02-1.57-.45-.47-1.02-.84-1.69-1.11s-1.48-.41-2.42-.41c-.84,0-1.57.08-2.2.24-.63.16-1.2.36-1.72.61-.52.24-.98.52-1.4.85s-.82.63-1.21.92l-2.61-2.71Zm12.29,9.1c-1.03,0-2.09.06-3.17.17-1.08.11-2.06.33-2.95.65-.89.32-1.61.77-2.18,1.35s-.85,1.32-.85,2.23c0,1.32.44,2.27,1.33,2.86s2.09.87,3.61.87c1.19,0,2.21-.2,3.05-.61.84-.4,1.52-.93,2.03-1.57.52-.64.89-1.36,1.11-2.15.23-.79.34-1.57.34-2.35v-1.45h-2.32Z"/>
        <path d="m343.85,194.15h-6.24v10.4c0,.65.02,1.28.05,1.91.03.63.15,1.19.36,1.69.21.5.53.9.97,1.21s1.07.46,1.91.46c.52,0,1.05-.05,1.6-.14s1.05-.27,1.5-.53v3.97c-.52.29-1.19.49-2.01.6s-1.46.17-1.91.17c-1.68,0-2.98-.23-3.9-.7-.92-.47-1.6-1.07-2.03-1.81s-.69-1.57-.77-2.49c-.08-.92-.12-1.85-.12-2.78v-11.95h-5.03v-3.77h5.03v-6.44h4.36v6.44h6.24v3.77Z"/>
      </g>
    </g>
    <g>
      <path d="m0,3.22h8.44v20.1h.4L28.48,3.22h11.39l-22.18,21.91,23.65,25.53h-11.86L8.91,27.34h-.47v23.32H0V3.22Z"/>
      <path d="m51.59,37.39c.27,2.41,1.21,4.29,2.81,5.63,1.61,1.34,3.55,2.01,5.83,2.01,2.01,0,3.7-.41,5.06-1.24,1.36-.83,2.56-1.86,3.58-3.12l5.76,4.35c-1.88,2.32-3.98,3.98-6.3,4.96-2.32.98-4.76,1.47-7.3,1.47-2.41,0-4.69-.4-6.83-1.21-2.14-.8-4-1.94-5.56-3.42-1.56-1.47-2.8-3.25-3.72-5.33-.92-2.08-1.37-4.39-1.37-6.93s.46-4.86,1.37-6.93c.92-2.08,2.15-3.85,3.72-5.33,1.56-1.47,3.42-2.61,5.56-3.42,2.14-.8,4.42-1.21,6.83-1.21,2.23,0,4.28.39,6.13,1.17,1.85.78,3.44,1.91,4.76,3.38,1.32,1.47,2.35,3.29,3.08,5.46.74,2.17,1.11,4.66,1.11,7.47v2.21h-24.52Zm16.48-6.03c-.05-2.37-.78-4.23-2.21-5.59-1.43-1.36-3.42-2.04-5.96-2.04-2.41,0-4.32.69-5.73,2.08-1.41,1.38-2.27,3.24-2.58,5.56h16.48Z"/>
      <path d="m90.05,37.39c.27,2.41,1.21,4.29,2.81,5.63,1.61,1.34,3.55,2.01,5.83,2.01,2.01,0,3.7-.41,5.06-1.24,1.36-.83,2.56-1.86,3.58-3.12l5.76,4.35c-1.88,2.32-3.98,3.98-6.3,4.96-2.32.98-4.76,1.47-7.3,1.47-2.41,0-4.69-.4-6.83-1.21-2.14-.8-4-1.94-5.56-3.42-1.56-1.47-2.8-3.25-3.72-5.33-.92-2.08-1.37-4.39-1.37-6.93s.46-4.86,1.37-6.93c.92-2.08,2.15-3.85,3.72-5.33,1.56-1.47,3.42-2.61,5.56-3.42,2.14-.8,4.42-1.21,6.83-1.21,2.23,0,4.28.39,6.13,1.17,1.85.78,3.44,1.91,4.76,3.38,1.32,1.47,2.35,3.29,3.08,5.46.74,2.17,1.11,4.66,1.11,7.47v2.21h-24.52Zm16.48-6.03c-.05-2.37-.78-4.23-2.21-5.59-1.43-1.36-3.42-2.04-5.96-2.04-2.41,0-4.32.69-5.73,2.08-1.41,1.38-2.27,3.24-2.58,5.56h16.48Z"/>
      <path d="m122.07,18.49h7.64v4.82h.13c1.16-1.96,2.72-3.39,4.69-4.29,1.96-.89,4.09-1.34,6.36-1.34,2.46,0,4.67.44,6.63,1.31,1.96.87,3.64,2.07,5.02,3.58,1.38,1.52,2.43,3.31,3.15,5.36.71,2.05,1.07,4.27,1.07,6.63s-.38,4.58-1.14,6.63c-.76,2.05-1.82,3.84-3.18,5.36-1.36,1.52-3,2.71-4.92,3.58-1.92.87-4.02,1.31-6.3,1.31-1.52,0-2.86-.16-4.02-.47-1.16-.31-2.19-.71-3.08-1.21-.89-.49-1.65-1.02-2.28-1.57-.63-.56-1.14-1.11-1.54-1.64h-.2v19.36h-8.04V18.49Zm26.67,16.08c0-1.25-.21-2.46-.64-3.62-.42-1.16-1.05-2.19-1.88-3.08-.83-.89-1.82-1.61-2.98-2.14-1.16-.54-2.48-.8-3.95-.8s-2.79.27-3.95.8c-1.16.54-2.16,1.25-2.98,2.14-.83.89-1.45,1.92-1.88,3.08-.42,1.16-.64,2.37-.64,3.62s.21,2.46.64,3.62c.42,1.16,1.05,2.19,1.88,3.08.83.89,1.82,1.61,2.98,2.14,1.16.54,2.48.8,3.95.8s2.79-.27,3.95-.8c1.16-.54,2.15-1.25,2.98-2.14.83-.89,1.45-1.92,1.88-3.08.42-1.16.64-2.37.64-3.62Z"/>
      <path d="m163.28,7.57c0-1.29.48-2.42,1.44-3.38.96-.96,2.18-1.44,3.65-1.44s2.71.46,3.72,1.37c1.01.92,1.51,2.07,1.51,3.45s-.5,2.54-1.51,3.45c-1,.92-2.24,1.37-3.72,1.37s-2.69-.48-3.65-1.44c-.96-.96-1.44-2.09-1.44-3.38Zm1.14,10.92h8.04v32.16h-8.04V18.49Z"/>
      <path d="m181.7,18.49h7.64v5.16h.13c.76-1.61,1.92-3,3.48-4.19,1.56-1.18,3.69-1.78,6.36-1.78,2.14,0,3.96.36,5.46,1.07,1.5.72,2.71,1.65,3.65,2.81.94,1.16,1.61,2.5,2.01,4.02.4,1.52.6,3.1.6,4.76v20.3h-8.04v-16.28c0-.89-.04-1.89-.13-2.98-.09-1.09-.32-2.12-.7-3.08-.38-.96-.97-1.76-1.78-2.41-.8-.65-1.9-.97-3.28-.97s-2.47.22-3.38.67c-.92.45-1.67,1.05-2.28,1.81-.6.76-1.04,1.63-1.31,2.61-.27.98-.4,2.01-.4,3.08v17.55h-8.04V18.49Z"/>
      <path d="m253.26,18.49v29.28c0,2.9-.36,5.53-1.07,7.87-.71,2.34-1.82,4.33-3.32,5.96-1.5,1.63-3.38,2.89-5.66,3.79-2.28.89-4.98,1.34-8.11,1.34s-5.83-.38-8.51-1.14c-2.68-.76-5.16-2.14-7.44-4.15l4.82-6.57c1.61,1.47,3.28,2.61,5.03,3.42,1.74.8,3.75,1.21,6.03,1.21,1.92,0,3.54-.27,4.86-.8s2.37-1.27,3.15-2.21c.78-.94,1.34-2.07,1.67-3.38.33-1.32.5-2.78.5-4.39v-2.35h-.13c-1.16,1.56-2.7,2.74-4.62,3.52-1.92.78-3.89,1.17-5.9,1.17-2.41,0-4.6-.44-6.57-1.31-1.97-.87-3.65-2.04-5.06-3.52-1.41-1.47-2.49-3.22-3.25-5.23-.76-2.01-1.14-4.15-1.14-6.43s.36-4.58,1.07-6.63c.71-2.05,1.76-3.84,3.15-5.36,1.38-1.52,3.05-2.71,4.99-3.58,1.94-.87,4.17-1.31,6.67-1.31,2.28,0,4.4.45,6.37,1.34,1.96.89,3.53,2.32,4.69,4.29h.13v-4.82h7.64Zm-17.15,6.43c-1.43,0-2.72.23-3.89.7-1.16.47-2.16,1.12-2.98,1.94s-1.47,1.83-1.94,3.02c-.47,1.18-.7,2.49-.7,3.92,0,1.3.23,2.5.7,3.62.47,1.12,1.13,2.1,1.98,2.95.85.85,1.85,1.52,3.01,2.01,1.16.49,2.41.74,3.75.74,1.47,0,2.8-.25,3.99-.74,1.18-.49,2.19-1.15,3.01-1.98.83-.83,1.46-1.82,1.91-2.98.45-1.16.67-2.41.67-3.75,0-2.81-.85-5.09-2.55-6.83-1.7-1.74-4.02-2.61-6.97-2.61Z"/>
      <path d="m278.45,25.33v-6.83h6.63v-9.31h8.04v9.31h8.84v6.83h-8.84v14.07c0,1.61.3,2.88.91,3.82.6.94,1.8,1.41,3.58,1.41.71,0,1.5-.08,2.34-.23.85-.16,1.52-.41,2.01-.77v6.77c-.85.4-1.89.68-3.12.84-1.23.16-2.31.23-3.25.23-2.14,0-3.9-.23-5.26-.7-1.36-.47-2.43-1.18-3.22-2.14-.78-.96-1.32-2.15-1.61-3.58-.29-1.43-.44-3.08-.44-4.96v-14.74h-6.63Z"/>
      <path d="m316.37,22.98h.13c.62-1.34,1.73-2.56,3.32-3.65,1.58-1.09,3.63-1.64,6.13-1.64,2.14,0,3.96.36,5.46,1.07,1.5.72,2.71,1.65,3.65,2.81.94,1.16,1.61,2.5,2.01,4.02.4,1.52.6,3.1.6,4.76v20.3h-8.04v-16.28c0-.89-.04-1.89-.13-2.98-.09-1.09-.32-2.12-.7-3.08-.38-.96-.97-1.76-1.78-2.41-.8-.65-1.9-.97-3.28-.97s-2.47.22-3.38.67c-.92.45-1.67,1.05-2.28,1.81-.6.76-1.04,1.63-1.31,2.61-.27.98-.4,2.01-.4,3.08v17.55h-8.04V0h8.04v22.98Z"/>
      <path d="m353.22,37.39c.27,2.41,1.21,4.29,2.81,5.63,1.61,1.34,3.55,2.01,5.83,2.01,2.01,0,3.7-.41,5.06-1.24,1.36-.83,2.56-1.86,3.58-3.12l5.76,4.35c-1.88,2.32-3.98,3.98-6.3,4.96-2.32.98-4.76,1.47-7.3,1.47-2.41,0-4.69-.4-6.83-1.21-2.14-.8-4-1.94-5.56-3.42-1.56-1.47-2.8-3.25-3.72-5.33-.92-2.08-1.37-4.39-1.37-6.93s.46-4.86,1.37-6.93c.92-2.08,2.15-3.85,3.72-5.33,1.56-1.47,3.42-2.61,5.56-3.42,2.14-.8,4.42-1.21,6.83-1.21,2.23,0,4.28.39,6.13,1.17,1.85.78,3.44,1.91,4.76,3.38,1.32,1.47,2.35,3.29,3.08,5.46.74,2.17,1.11,4.66,1.11,7.47v2.21h-24.52Zm16.48-6.03c-.04-2.37-.78-4.23-2.21-5.59-1.43-1.36-3.42-2.04-5.96-2.04-2.41,0-4.32.69-5.73,2.08-1.41,1.38-2.27,3.24-2.58,5.56h16.48Z"/>
      <path d="m405.81,3.22h15.95c2.28,0,4.48.22,6.6.67,2.12.45,3.99,1.2,5.59,2.24,1.61,1.05,2.89,2.46,3.85,4.22.96,1.76,1.44,3.96,1.44,6.6,0,2.99-.51,5.41-1.54,7.24-1.03,1.83-2.41,3.25-4.15,4.25s-3.76,1.69-6.06,2.04c-2.3.36-4.7.54-7.2.54h-6.03v19.63h-8.44V3.22Zm13.53,20.57c1.21,0,2.46-.04,3.75-.13,1.29-.09,2.49-.36,3.58-.8,1.09-.45,1.99-1.12,2.68-2.01.69-.89,1.04-2.14,1.04-3.75,0-1.47-.31-2.65-.94-3.52-.63-.87-1.43-1.54-2.41-2.01-.98-.47-2.08-.77-3.28-.9s-2.37-.2-3.48-.2h-6.03v13.33h5.09Z"/>
      <path d="m446.15,0h8.04v50.65h-8.04V0Z"/>
      <path d="m483.53,46.23h-.2c-1.16,1.83-2.64,3.16-4.42,3.99-1.79.83-3.75,1.24-5.9,1.24-1.47,0-2.91-.2-4.32-.6-1.41-.4-2.66-1.01-3.75-1.81-1.09-.8-1.98-1.81-2.65-3.02s-1-2.61-1-4.22c0-1.74.31-3.23.94-4.46.62-1.23,1.46-2.26,2.51-3.08,1.05-.83,2.27-1.48,3.65-1.98,1.38-.49,2.83-.86,4.32-1.11,1.5-.25,3-.4,4.52-.47,1.52-.07,2.95-.1,4.29-.1h2.01v-.87c0-2.01-.69-3.52-2.08-4.52-1.38-1.01-3.15-1.51-5.29-1.51-1.7,0-3.28.3-4.76.9-1.47.6-2.75,1.42-3.82,2.45l-4.22-4.22c1.79-1.83,3.87-3.15,6.26-3.95,2.39-.8,4.86-1.21,7.4-1.21,2.28,0,4.2.26,5.76.77,1.56.51,2.86,1.17,3.89,1.98,1.03.8,1.82,1.73,2.38,2.78.56,1.05.96,2.11,1.21,3.18.25,1.07.39,2.11.44,3.12.04,1.01.07,1.89.07,2.65v18.49h-7.24v-4.42Zm-.47-9.98h-1.67c-1.12,0-2.37.04-3.75.13-1.38.09-2.69.3-3.92.64-1.23.33-2.27.83-3.12,1.47-.85.65-1.27,1.55-1.27,2.71,0,.76.17,1.4.5,1.91.33.51.77.95,1.31,1.31.54.36,1.14.61,1.81.77.67.16,1.34.23,2.01.23,2.77,0,4.81-.66,6.13-1.98,1.32-1.32,1.98-3.12,1.98-5.39v-1.81Z"/>
      <path d="m495.66,25.33v-6.83h6.63v-9.31h8.04v9.31h8.84v6.83h-8.84v14.07c0,1.61.3,2.88.91,3.82.6.94,1.8,1.41,3.58,1.41.71,0,1.5-.08,2.34-.23.85-.16,1.52-.41,2.01-.77v6.77c-.85.4-1.89.68-3.12.84-1.23.16-2.31.23-3.25.23-2.14,0-3.9-.23-5.26-.7-1.36-.47-2.43-1.18-3.22-2.14-.78-.96-1.32-2.15-1.61-3.58-.29-1.43-.44-3.08-.44-4.96v-14.74h-6.63Z"/>
      <path d="m531.9,37.39c.27,2.41,1.21,4.29,2.81,5.63,1.61,1.34,3.55,2.01,5.83,2.01,2.01,0,3.7-.41,5.06-1.24,1.36-.83,2.56-1.86,3.58-3.12l5.76,4.35c-1.88,2.32-3.98,3.98-6.3,4.96-2.32.98-4.76,1.47-7.3,1.47-2.41,0-4.69-.4-6.83-1.21-2.14-.8-4-1.94-5.56-3.42-1.56-1.47-2.8-3.25-3.72-5.33-.92-2.08-1.37-4.39-1.37-6.93s.46-4.86,1.37-6.93c.92-2.08,2.15-3.85,3.72-5.33,1.56-1.47,3.42-2.61,5.56-3.42,2.14-.8,4.42-1.21,6.83-1.21,2.23,0,4.28.39,6.13,1.17,1.85.78,3.44,1.91,4.76,3.38,1.32,1.47,2.35,3.29,3.08,5.46.74,2.17,1.11,4.66,1.11,7.47v2.21h-24.52Zm16.48-6.03c-.04-2.37-.78-4.23-2.21-5.59-1.43-1.36-3.42-2.04-5.96-2.04-2.41,0-4.32.69-5.73,2.08-1.41,1.38-2.27,3.24-2.58,5.56h16.48Z"/>
      <path d="m581.08,27.4c-1.56-2.19-3.66-3.28-6.3-3.28-1.07,0-2.12.27-3.15.8s-1.54,1.41-1.54,2.61c0,.98.42,1.7,1.27,2.14.85.45,1.92.83,3.22,1.14,1.29.31,2.69.64,4.19.97,1.5.33,2.89.85,4.19,1.54,1.29.69,2.37,1.64,3.22,2.85s1.27,2.86,1.27,4.96c0,1.92-.41,3.54-1.24,4.86-.83,1.32-1.9,2.38-3.22,3.18-1.32.8-2.8,1.39-4.46,1.74-1.65.36-3.31.54-4.96.54-2.5,0-4.8-.36-6.9-1.07s-3.98-2.01-5.63-3.89l5.36-5.03c1.03,1.16,2.13,2.11,3.32,2.85,1.18.74,2.62,1.11,4.32,1.11.58,0,1.18-.07,1.81-.2.62-.13,1.21-.36,1.74-.67.54-.31.97-.7,1.31-1.17.33-.47.5-1.02.5-1.64,0-1.12-.42-1.94-1.27-2.48-.85-.54-1.92-.97-3.22-1.31-1.3-.34-2.69-.65-4.19-.94-1.5-.29-2.89-.76-4.19-1.41-1.3-.65-2.37-1.55-3.22-2.71-.85-1.16-1.27-2.77-1.27-4.82,0-1.79.37-3.34,1.11-4.66.74-1.32,1.71-2.4,2.92-3.25,1.21-.85,2.59-1.47,4.15-1.88,1.56-.4,3.15-.6,4.76-.6,2.14,0,4.26.37,6.36,1.11,2.1.74,3.8,2,5.09,3.79l-5.36,4.82Z"/>
    </g>
    <g>
      <path d="m183.91,82.54c-.89-1.29-2.09-2.24-3.58-2.85-1.5-.6-3.07-.9-4.72-.9-.98,0-1.93.11-2.85.33-.92.22-1.74.58-2.48,1.07-.74.49-1.33,1.13-1.78,1.91-.45.78-.67,1.71-.67,2.78,0,1.61.56,2.84,1.68,3.69,1.12.85,2.5,1.59,4.15,2.21,1.65.63,3.46,1.23,5.43,1.81,1.97.58,3.77,1.39,5.43,2.41,1.65,1.03,3.04,2.39,4.15,4.09,1.12,1.7,1.68,3.95,1.68,6.77,0,2.55-.47,4.77-1.41,6.67-.94,1.9-2.2,3.47-3.79,4.72-1.59,1.25-3.43,2.19-5.53,2.81-2.1.62-4.31.94-6.63.94-2.95,0-5.79-.49-8.51-1.47-2.72-.98-5.07-2.63-7.03-4.96l6.36-6.16c1.03,1.56,2.38,2.78,4.05,3.65,1.67.87,3.45,1.31,5.33,1.31.98,0,1.97-.13,2.95-.4.98-.27,1.88-.67,2.68-1.21.8-.54,1.45-1.22,1.94-2.04.49-.83.74-1.78.74-2.85,0-1.74-.56-3.08-1.67-4.02-1.12-.94-2.5-1.73-4.15-2.38-1.65-.65-3.46-1.26-5.43-1.84-1.97-.58-3.77-1.37-5.43-2.38-1.65-1.01-3.04-2.35-4.15-4.02-1.12-1.68-1.67-3.92-1.67-6.73,0-2.46.5-4.58,1.51-6.36,1-1.79,2.32-3.27,3.95-4.46,1.63-1.18,3.49-2.07,5.59-2.65,2.1-.58,4.24-.87,6.43-.87,2.5,0,4.92.38,7.27,1.14,2.35.76,4.46,2.01,6.33,3.75l-6.16,6.5Z"/>
      <path d="m198.38,87.63h7.64v4.82h.13c1.16-1.96,2.72-3.39,4.69-4.29,1.96-.89,4.09-1.34,6.36-1.34,2.46,0,4.67.44,6.63,1.31,1.96.87,3.64,2.07,5.02,3.58,1.38,1.52,2.43,3.31,3.15,5.36.71,2.05,1.07,4.27,1.07,6.63s-.38,4.58-1.14,6.63c-.76,2.05-1.82,3.84-3.18,5.36-1.36,1.52-3,2.71-4.92,3.58-1.92.87-4.02,1.31-6.3,1.31-1.52,0-2.86-.16-4.02-.47-1.16-.31-2.19-.71-3.08-1.21-.89-.49-1.65-1.02-2.28-1.57-.63-.56-1.14-1.11-1.54-1.64h-.2v19.36h-8.04v-47.44Zm26.67,16.08c0-1.25-.21-2.46-.64-3.62-.42-1.16-1.05-2.19-1.88-3.08-.83-.89-1.82-1.61-2.98-2.14-1.16-.54-2.48-.8-3.95-.8s-2.79.27-3.95.8c-1.16.54-2.16,1.25-2.98,2.14-.83.89-1.45,1.92-1.88,3.08-.42,1.16-.64,2.37-.64,3.62s.21,2.46.64,3.62c.42,1.16,1.05,2.19,1.88,3.08.83.89,1.82,1.61,2.98,2.14,1.16.54,2.48.8,3.95.8s2.79-.27,3.95-.8c1.16-.54,2.15-1.25,2.98-2.14.83-.89,1.45-1.92,1.88-3.08.42-1.16.64-2.37.64-3.62Z"/>
      <path d="m239.59,76.71c0-1.29.48-2.42,1.44-3.38.96-.96,2.18-1.44,3.65-1.44s2.71.46,3.72,1.37c1.01.92,1.51,2.07,1.51,3.45s-.5,2.54-1.51,3.45c-1,.92-2.24,1.37-3.72,1.37s-2.69-.48-3.65-1.44c-.96-.96-1.44-2.09-1.44-3.38Zm1.14,10.92h8.04v32.16h-8.04v-32.16Z"/>
      <path d="m258.01,87.63h7.64v5.16h.13c.76-1.61,1.92-3,3.48-4.19,1.56-1.18,3.69-1.78,6.36-1.78,2.14,0,3.96.36,5.46,1.07,1.5.72,2.71,1.65,3.65,2.81.94,1.16,1.61,2.5,2.01,4.02.4,1.52.6,3.1.6,4.76v20.3h-8.04v-16.28c0-.89-.04-1.89-.13-2.98-.09-1.09-.32-2.12-.7-3.08-.38-.96-.97-1.76-1.78-2.41-.8-.65-1.9-.97-3.28-.97s-2.47.22-3.38.67c-.92.45-1.67,1.05-2.28,1.81-.6.76-1.04,1.63-1.31,2.61-.27.98-.4,2.01-.4,3.08v17.55h-8.04v-32.16Z"/>
      <path d="m296.47,87.63h7.64v5.16h.13c.76-1.61,1.92-3,3.48-4.19,1.56-1.18,3.68-1.78,6.36-1.78,2.14,0,3.96.36,5.46,1.07,1.5.72,2.71,1.65,3.65,2.81.94,1.16,1.61,2.5,2.01,4.02.4,1.52.6,3.1.6,4.76v20.3h-8.04v-16.28c0-.89-.04-1.89-.13-2.98-.09-1.09-.33-2.12-.7-3.08-.38-.96-.97-1.76-1.78-2.41-.8-.65-1.9-.97-3.28-.97s-2.47.22-3.38.67c-.92.45-1.67,1.05-2.28,1.81-.6.76-1.04,1.63-1.31,2.61-.27.98-.4,2.01-.4,3.08v17.55h-8.04v-32.16Z"/>
      <path d="m333.92,76.71c0-1.29.48-2.42,1.44-3.38s2.18-1.44,3.65-1.44,2.71.46,3.72,1.37c1,.92,1.51,2.07,1.51,3.45s-.5,2.54-1.51,3.45c-1,.92-2.24,1.37-3.72,1.37s-2.69-.48-3.65-1.44c-.96-.96-1.44-2.09-1.44-3.38Zm1.14,10.92h8.04v32.16h-8.04v-32.16Z"/>
      <path d="m352.35,87.63h7.64v5.16h.13c.76-1.61,1.92-3,3.48-4.19,1.56-1.18,3.68-1.78,6.36-1.78,2.14,0,3.96.36,5.46,1.07,1.5.72,2.71,1.65,3.65,2.81.94,1.16,1.61,2.5,2.01,4.02.4,1.52.6,3.1.6,4.76v20.3h-8.04v-16.28c0-.89-.04-1.89-.13-2.98-.09-1.09-.33-2.12-.7-3.08-.38-.96-.97-1.76-1.78-2.41-.8-.65-1.9-.97-3.28-.97s-2.47.22-3.38.67c-.92.45-1.67,1.05-2.28,1.81-.6.76-1.04,1.63-1.31,2.61-.27.98-.4,2.01-.4,3.08v17.55h-8.04v-32.16Z"/>
      <path d="m423.9,87.63v29.28c0,2.9-.36,5.53-1.07,7.87-.71,2.34-1.82,4.33-3.32,5.96-1.5,1.63-3.38,2.89-5.66,3.79-2.28.89-4.98,1.34-8.11,1.34s-5.83-.38-8.51-1.14c-2.68-.76-5.16-2.14-7.44-4.15l4.82-6.57c1.61,1.47,3.28,2.61,5.02,3.42,1.74.8,3.75,1.21,6.03,1.21,1.92,0,3.54-.27,4.86-.8s2.37-1.27,3.15-2.21c.78-.94,1.34-2.07,1.67-3.38.33-1.32.5-2.78.5-4.39v-2.35h-.13c-1.16,1.56-2.7,2.74-4.62,3.52-1.92.78-3.89,1.17-5.9,1.17-2.41,0-4.6-.44-6.57-1.31-1.97-.87-3.65-2.04-5.06-3.52-1.41-1.47-2.49-3.22-3.25-5.23-.76-2.01-1.14-4.15-1.14-6.43s.36-4.58,1.07-6.63c.71-2.05,1.76-3.84,3.15-5.36,1.38-1.52,3.05-2.71,4.99-3.58,1.94-.87,4.17-1.31,6.67-1.31,2.28,0,4.4.45,6.36,1.34,1.97.89,3.53,2.32,4.69,4.29h.13v-4.82h7.64Zm-17.15,6.43c-1.43,0-2.73.23-3.89.7-1.16.47-2.16,1.12-2.98,1.94-.83.83-1.47,1.83-1.94,3.02-.47,1.18-.7,2.49-.7,3.92,0,1.3.24,2.5.7,3.62.47,1.12,1.13,2.1,1.98,2.95.85.85,1.85,1.52,3.01,2.01,1.16.49,2.41.74,3.75.74,1.47,0,2.8-.25,3.99-.74,1.18-.49,2.19-1.15,3.02-1.98.83-.83,1.46-1.82,1.91-2.98.45-1.16.67-2.41.67-3.75,0-2.81-.85-5.09-2.55-6.83-1.7-1.74-4.02-2.61-6.97-2.61Z"/>
    </g>
  </g>
</svg>